<mxfile host="app.diagrams.net" modified="2024-02-27T23:54:44.225Z" agent="Mozilla/5.0 (Windows NT 10.0; Win64; x64) AppleWebKit/537.36 (KHTML, like Gecko) Chrome/122.0.0.0 Safari/537.36" version="23.1.7" etag="msOoWcR6sB0aB7t5HL9Q" type="github">
  <diagram name="Page-1" id="fgNl97S-y28RIZOPzLIX">
    <mxGraphModel>
      <root>
        <mxCell id="0" />
        <mxCell id="1" parent="0" />
      </root>
    </mxGraphModel>
  </diagram>
</mxfile>
